# xmcd
#
# Track frame offsets: 
#        150
#        23470
#        43786
#        58603
#        76616
#        103494
#        122889
#        138719
#        170001
#        194901
#        217002
#        238407
#        266517
#        287443
#        304001
#        331203
#
# Disc length: 4777 seconds
#
# Revision: 0
# Processed by: cddbd v1.5.2PL0 Copyright (c) Steve Scherf et al.
# Submitted via: ExactAudioCopy v1.1
#
DISCID=f412a710
DTITLE=Various Artist - Akella Presents - vol.102 - Black Pure Blues 
DTITLE=CD2
DYEAR=2017
DGENRE=Blues
TTITLE0=The Joey Gilmore Band - Man of My Word
TTITLE1=Jonathan Ellison - Lyin' Eyes
TTITLE2=Little Jimmy King - Born Again
TTITLE3=Skeeter Brandon - You Never Want To Love Me
TTITLE4=Taj Mahal and Keb' Mo' - Shake Me In Your Arms
TTITLE5=Preston Shannon - Are You In The Mood
TTITLE6=Bob Kirkpatrick - Big Feet
TTITLE7=Larry Garner - Tale Spreaders
TTITLE8=Bobby Dean Blackburn - Kitchen Blues
TTITLE9=Mel Brown - I Wouldn't Treat A Dog
TTITLE10=Eddie Shaw - Built For Comfort
TTITLE11=Michael 'Iron Man' Burks - Empty Promises
TTITLE12=John Primer - Hold Me In Your Arms
TTITLE13=Bobby 'Blue' Bland - Love Me Or Leave Me
TTITLE14=Clarence 'Gatemouth' Brown - You Can Disagree
TTITLE15=Curley Bridges - You're The One
EXTD=
EXTT0=
EXTT1=
EXTT2=
EXTT3=
EXTT4=
EXTT5=
EXTT6=
EXTT7=
EXTT8=
EXTT9=
EXTT10=
EXTT11=
EXTT12=
EXTT13=
EXTT14=
EXTT15=
PLAYORDER=
